<svg xmlns="http://www.w3.org/2000/svg" viewBox="0 0 512 512">
  <path fill="currentColor" d="M427 169.3c-1-1.3-2.4-2.4-4-3.2L262.3 59.5c-3.9-2.7-9.5-2.7-13.4 0l-160.7 106.6c-1.6.8-3 1.9-4 3.2-1.3 1.6-2.1 3.2-2.3 5.3V337.6c.1 2.1.9 3.8 2.3 5.3 1 1.3 2.4 2.4 4 3.2l160.7 106.6c3.9 2.7 9.5 2.7 13.4 0l160.7-106.6c1.6-.8 3-1.9 4-3.2 1.3-1.6 2.1-3.2 2.3-5.3V174.6c-.1-2.1-.9-3.8-2.3-5.3zM277.1 106l111.4 73.9-50.6 33.8-60.8-40.4V106zm-42.2 0v67.3l-60.8 40.4-50.6-33.8L234.9 106zm-101.5 106.2l39 26.1-39 26.1v-52.2zm101.5 193.3l-111.4-73.9 50.6-33.8 60.8 40.4V405.5zm42.2 0v-67.3l60.8-40.4 50.6 33.8L277.1 405.5zm101.5-106.2l-39-26.1 39-26.1v52.2zm-122.6-1.5l-31.1-20.7 31.1-20.7 31.1 20.7-31.1 20.7z"/>
</svg>